# xmcd CD database file
# Copyright (C) 1996 Ti Kan
#
# Track frame offsets:
#	187
#	10967
#	22660
#	33920
#	44572
#	59285
#	72872
#	88092
#	104427
#	117130
#	134387
#	151180
#
# Disc length: 2203 seconds
#
# Revision: 2
# Processed by: cddbd v1.4PL0 Copyright (c) Steve Scherf et al.
# Submitted via: Gronk 1.4
#
DISCID=9308990c
DTITLE=Etta James - The Sweetest Peaches - Part Two (1967-1975)
DYEAR=1900
DGENRE=blues
TTITLE0=Tell Mama
TTITLE1=I'd Rather Go Blind
TTITLE2=Security
TTITLE3=Miss Pitiful
TTITLE4=W.O.M.A.N.
TTITLE5=Losers, Weepers, Part One
TTITLE6=You Can Leave Your Hat On
TTITLE7=God's Song (That's Why I Love Mankind)
TTITLE8=Feeling Uneasy
TTITLE9=Lovin' Arms
TTITLE10=Let's Burn Down The Cornfield
TTITLE11=Gonna Have Some Fun Tonight
EXTD=
EXTT0=
EXTT1=
EXTT2=
EXTT3=
EXTT4=
EXTT5=
EXTT6=
EXTT7=
EXTT8=
EXTT9=
EXTT10=
EXTT11=
PLAYORDER=
